<svg width="228" height="228" viewBox="0 0 228 228" fill="none" xmlns="http://www.w3.org/2000/svg">
<g filter="url(#filter0_d_205_137)">
<circle cx="114" cy="114" r="100" fill="white"/>
</g>
<path d="M171.4 59C167.083 73.906 155.408 89.5542 138.535 100.972C125.717 109.647 112.078 114.405 99.8826 115.254C94.8523 109.159 90.3039 102.215 86.159 94.6004C85.171 92.7854 84.6262 90.9978 84.1111 89.3077C83.3533 86.8213 82.6599 84.5461 80.7142 82.7054C77.4461 79.6136 73.1 77.9632 68.6321 78.1174C64.1642 78.2715 59.9404 80.2175 56.8899 83.5273C54.455 86.1692 52.9269 89.5072 52.4875 93.0489C52.4609 93.8659 52.4474 94.6863 52.4474 95.5097C52.4474 96.7873 52.4798 98.0572 52.5437 99.3187L42 97.0658L52.9379 104.077C52.9801 104.444 53.0251 104.809 53.0727 105.174L42 110.244L53.5964 108.572C59.7148 142.928 89.5368 169 125.404 169C151.305 169 174.054 155.404 187 134.91C177.235 139.796 166.229 142.544 154.587 142.544C148.247 142.544 142.314 141.76 136.754 140.272C139.703 138.714 142.637 136.956 145.528 134.999C146.247 134.513 146.969 134.045 147.687 133.581C149.312 132.529 150.912 131.492 152.398 130.286C152.398 130.286 147.57 131.912 144.373 132.49C141.554 133 137.077 133.225 137.077 133.225C137.077 133.225 154.188 127.83 161.725 121.152C164.645 118.565 166.372 116.019 168.155 113.39C168.48 112.911 168.808 112.428 169.145 111.942C169.145 111.942 164.374 114.048 161.153 114.853C157.989 115.643 152.888 116.036 152.888 116.036C152.888 116.036 171.441 108.898 174.128 103.655C176.814 98.4112 178.661 93.1146 179.577 87.9782C179.577 87.9782 176.006 90.6316 173.555 92.0706C170.994 93.5744 166.75 95.4584 166.75 95.4584C166.75 95.4584 175.196 87.5366 176.964 80.7604C178.54 74.7199 179.071 69.8004 176.063 64.7931C174.758 62.6208 173.192 60.6897 171.4 59Z" fill="#38E2ED"/>
<defs>
<filter id="filter0_d_205_137" x="0" y="0" width="228" height="228" filterUnits="userSpaceOnUse" color-interpolation-filters="sRGB">
<feFlood flood-opacity="0" result="BackgroundImageFix"/>
<feColorMatrix in="SourceAlpha" type="matrix" values="0 0 0 0 0 0 0 0 0 0 0 0 0 0 0 0 0 0 127 0" result="hardAlpha"/>
<feMorphology radius="4" operator="dilate" in="SourceAlpha" result="effect1_dropShadow_205_137"/>
<feOffset/>
<feGaussianBlur stdDeviation="5"/>
<feComposite in2="hardAlpha" operator="out"/>
<feColorMatrix type="matrix" values="0 0 0 0 0 0 0 0 0 0 0 0 0 0 0 0 0 0 0.45 0"/>
<feBlend mode="normal" in2="BackgroundImageFix" result="effect1_dropShadow_205_137"/>
<feBlend mode="normal" in="SourceGraphic" in2="effect1_dropShadow_205_137" result="shape"/>
</filter>
</defs>
</svg>
