<svg width="40px" height="40px" viewBox="0 0 256 236" fill="none" xmlns="http://www.w3.org/2000/svg">
<mask id="path-1-inside-1_14_49" fill="white">
<path fill-rule="evenodd" clip-rule="evenodd" d="M128 27.6768C114.919 10.8363 94.475 0 71.5 0C32.0116 0 0 32.0116 0 71.5C0 91.0199 7.82211 108.713 20.5028 121.615C20.7968 122.016 21.1132 122.41 21.4524 122.796L115.984 230.315C122.356 237.562 133.645 237.562 140.016 230.315L234.548 122.796C234.888 122.41 235.204 122.015 235.499 121.614C248.178 108.712 256 91.0192 256 71.5C256 32.0116 223.988 0 184.5 0C161.525 0 141.081 10.8363 128 27.6768Z"/>
</mask>
<path fill="#CC67CE" fill-rule="evenodd" clip-rule="evenodd" d="M128 27.6768C114.919 10.8363 94.475 0 71.5 0C32.0116 0 0 32.0116 0 71.5C0 91.0199 7.82211 108.713 20.5028 121.615C20.7968 122.016 21.1132 122.41 21.4524 122.796L115.984 230.315C122.356 237.562 133.645 237.562 140.016 230.315L234.548 122.796C234.888 122.41 235.204 122.015 235.499 121.614C248.178 108.712 256 91.0192 256 71.5C256 32.0116 223.988 0 184.5 0C161.525 0 141.081 10.8363 128 27.6768Z" />
<path fill="black" d="M128 27.6768L118.523 35.038L128 47.2386L137.477 35.038L128 27.6768ZM20.5028 121.615L30.1816 114.522L29.6691 113.822L29.0613 113.204L20.5028 121.615ZM21.4524 122.796L12.4404 130.72L12.4404 130.72L21.4524 122.796ZM115.984 230.315L106.972 238.238L106.972 238.238L115.984 230.315ZM140.016 230.315L149.028 238.238L149.028 238.238L140.016 230.315ZM234.548 122.796L225.536 114.873L225.536 114.873L234.548 122.796ZM235.499 121.614L226.94 113.203L226.332 113.821L225.819 114.521L235.499 121.614ZM137.477 20.3155C122.221 0.674506 98.3375 -12 71.5 -12V12C90.6125 12 107.618 20.9981 118.523 35.038L137.477 20.3155ZM71.5 -12C25.3842 -12 -12 25.3842 -12 71.5H12C12 38.6391 38.6391 12 71.5 12V-12ZM-12 71.5C-12 94.2919 -2.85245 114.971 11.9443 130.027L29.0613 113.204C18.4967 102.454 12 87.7478 12 71.5H-12ZM10.824 128.709C11.3294 129.399 11.8684 130.069 12.4404 130.72L30.4645 114.873C30.3579 114.752 30.2642 114.634 30.1816 114.522L10.824 128.709ZM12.4404 130.72L106.972 238.238L124.996 222.391L30.4645 114.873L12.4404 130.72ZM106.972 238.238C118.122 250.921 137.878 250.921 149.028 238.238L131.004 222.391C129.411 224.203 126.589 224.203 124.996 222.391L106.972 238.238ZM149.028 238.238L243.56 130.72L225.536 114.873L131.004 222.391L149.028 238.238ZM243.56 130.72C244.133 130.068 244.672 129.397 245.178 128.707L225.819 114.521C225.736 114.634 225.642 114.752 225.536 114.873L243.56 130.72ZM244 71.5C244 87.7473 237.504 102.453 226.94 113.203L244.057 130.025C258.853 114.97 268 94.2911 268 71.5H244ZM184.5 12C217.361 12 244 38.6391 244 71.5H268C268 25.3842 230.616 -12 184.5 -12V12ZM137.477 35.038C148.382 20.9981 165.387 12 184.5 12V-12C157.662 -12 133.779 0.674506 118.523 20.3155L137.477 35.038Z"  mask="url(#path-1-inside-1_14_49)"/>
</svg>
